<svg width="40" height="40" viewBox="0 0 40 40" fill="none" xmlns="http://www.w3.org/2000/svg">
<g clip-path="url(#clip0_1848_958)">
<path d="M33.1917 21.714C32.545 20.8973 32.73 20.534 33.1917 19.804C33.2 19.7957 38.5383 12.419 39.0883 9.91732L39.0917 9.91565C39.365 9.00398 39.0917 8.33398 37.77 8.33398H33.3967C32.2833 8.33398 31.77 8.90898 31.495 9.55232C31.495 9.55232 29.2683 14.8823 26.1183 18.3373C25.1017 19.3357 24.6317 19.6557 24.0767 19.6557C23.8033 19.6557 23.3783 19.3357 23.3783 18.424V9.91565C23.3783 8.82232 23.0667 8.33398 22.145 8.33398H15.2683C14.57 8.33398 14.155 8.84398 14.155 9.31898C14.155 10.3557 15.73 10.594 15.8933 13.5107V19.839C15.8933 21.2257 15.6417 21.4807 15.0833 21.4807C13.5967 21.4807 9.98833 16.129 7.85 10.004C7.41833 8.81565 6.99667 8.33565 5.875 8.33565H1.5C0.251667 8.33565 0 8.91065 0 9.55398C0 10.6907 1.48667 16.3423 6.91333 23.809C10.53 28.9057 15.6233 31.6673 20.2567 31.6673C23.0417 31.6673 23.3817 31.054 23.3817 29.999C23.3817 25.129 23.13 24.669 24.525 24.669C25.1717 24.669 26.285 24.989 28.885 27.4473C31.8567 30.3623 32.345 31.6673 34.0083 31.6673H38.3817C39.6283 31.6673 40.26 31.054 39.8967 29.844C39.065 27.299 33.445 22.064 33.1917 21.714Z" fill="white"/>
</g>
<defs>
<clipPath id="clip0_1848_958">
<rect width="40" height="40" fill="white"/>
</clipPath>
</defs>
</svg>
